<svg aria-hidden="true" style="position:absolute;width:0;height:0;overflow:hidden" xmlns="http://www.w3.org/2000/svg">
  <defs>
<symbol id="icon-facebook" viewBox="0 0 32 32">
<path d="M19 6h5v-6h-5c-3.86 0-7 3.14-7 7v3h-4v6h4v16h6v-16h5l1-6h-6v-3c0-0.542 0.458-1 1-1z"></path>
</symbol>
<symbol id="icon-instagram" viewBox="0 0 32 32">
<path d="M16 2.881c4.275 0 4.781 0.019 6.462 0.094 1.563 0.069 2.406 0.331 2.969 0.55 0.744 0.288 1.281 0.638 1.837 1.194 0.563 0.563 0.906 1.094 1.2 1.838 0.219 0.563 0.481 1.412 0.55 2.969 0.075 1.688 0.094 2.194 0.094 6.463s-0.019 4.781-0.094 6.463c-0.069 1.563-0.331 2.406-0.55 2.969-0.288 0.744-0.637 1.281-1.194 1.837-0.563 0.563-1.094 0.906-1.837 1.2-0.563 0.219-1.413 0.481-2.969 0.55-1.688 0.075-2.194 0.094-6.463 0.094s-4.781-0.019-6.463-0.094c-1.563-0.069-2.406-0.331-2.969-0.55-0.744-0.288-1.281-0.637-1.838-1.194-0.563-0.563-0.906-1.094-1.2-1.837-0.219-0.563-0.481-1.413-0.55-2.969-0.075-1.688-0.094-2.194-0.094-6.463s0.019-4.781 0.094-6.463c0.069-1.563 0.331-2.406 0.55-2.969 0.288-0.744 0.638-1.281 1.194-1.838 0.563-0.563 1.094-0.906 1.838-1.2 0.563-0.219 1.412-0.481 2.969-0.55 1.681-0.075 2.188-0.094 6.463-0.094zM16 0c-4.344 0-4.887 0.019-6.594 0.094-1.7 0.075-2.869 0.35-3.881 0.744-1.056 0.412-1.95 0.956-2.837 1.85-0.894 0.888-1.438 1.781-1.85 2.831-0.394 1.019-0.669 2.181-0.744 3.881-0.075 1.713-0.094 2.256-0.094 6.6s0.019 4.887 0.094 6.594c0.075 1.7 0.35 2.869 0.744 3.881 0.413 1.056 0.956 1.95 1.85 2.837 0.887 0.887 1.781 1.438 2.831 1.844 1.019 0.394 2.181 0.669 3.881 0.744 1.706 0.075 2.25 0.094 6.594 0.094s4.888-0.019 6.594-0.094c1.7-0.075 2.869-0.35 3.881-0.744 1.050-0.406 1.944-0.956 2.831-1.844s1.438-1.781 1.844-2.831c0.394-1.019 0.669-2.181 0.744-3.881 0.075-1.706 0.094-2.25 0.094-6.594s-0.019-4.887-0.094-6.594c-0.075-1.7-0.35-2.869-0.744-3.881-0.394-1.063-0.938-1.956-1.831-2.844-0.887-0.887-1.781-1.438-2.831-1.844-1.019-0.394-2.181-0.669-3.881-0.744-1.712-0.081-2.256-0.1-6.6-0.1v0z"></path>
<path d="M16 7.781c-4.537 0-8.219 3.681-8.219 8.219s3.681 8.219 8.219 8.219 8.219-3.681 8.219-8.219c0-4.537-3.681-8.219-8.219-8.219zM16 21.331c-2.944 0-5.331-2.387-5.331-5.331s2.387-5.331 5.331-5.331c2.944 0 5.331 2.387 5.331 5.331s-2.387 5.331-5.331 5.331z"></path>
<path d="M26.462 7.456c0 1.060-0.859 1.919-1.919 1.919s-1.919-0.859-1.919-1.919c0-1.060 0.859-1.919 1.919-1.919s1.919 0.859 1.919 1.919z"></path>
</symbol>
    <symbol id="icon-phone_in_talk" viewBox="0 0 24 24">
      <path d="M15 12q0-1.219-.891-2.109T12 9V6.984q2.063 0 3.539 1.477T17.016 12H15zm3.984 0q0-2.906-2.039-4.945T12 5.016V3q3.75 0 6.375 2.625T21 12h-2.016zm1.032 3.516q.422 0 .703.281T21 16.5v3.516q0 .422-.281.703t-.703.281q-7.031 0-12.023-4.992T3.001 3.985q0-.422.281-.703t.703-.281h3.516q.422 0 .703.281t.281.703v.047q0 1.922.563 3.516.094.188.094.328 0 .469-.328.703l-2.203 2.203q.938 1.781 2.883 3.727t3.727 2.883l2.203-2.203q.328-.328.703-.328.141 0 .328.094 1.688.563 3.563.563z"/>
    </symbol>
  <symbol id="icon-air" viewBox="0 0 19 20">
<path d="M2.644 6.357c1.747-1.5 3.127-2.686 6.872-0.57 1.799 1.016 3.25 1.4 4.457 1.398 2.115 0 3.486-1.176 4.671-2.193 0.423-0.363 0.477-1.008 0.122-1.439-0.357-0.432-0.987-0.488-1.41-0.125-1.746 1.502-3.127 2.688-6.872 0.57-4.948-2.793-7.266-0.803-9.128 0.797-0.422 0.363-0.476 1.006-0.121 1.439 0.356 0.43 0.986 0.487 1.409 0.123zM17.356 8.535c-1.746 1.5-3.127 2.688-6.872 0.57-4.948-2.795-7.266-0.804-9.128 0.795-0.422 0.363-0.477 1.008-0.121 1.439s0.986 0.488 1.409 0.125c1.747-1.501 3.127-2.687 6.872-0.572 1.799 1.018 3.25 1.4 4.457 1.4 2.115 0 3.486-1.176 4.671-2.195 0.423-0.363 0.477-1.008 0.122-1.438-0.356-0.433-0.987-0.487-1.41-0.124zM17.356 13.641c-1.746 1.502-3.127 2.688-6.872 0.572-4.948-2.795-7.266-0.805-9.128 0.795-0.422 0.363-0.477 1.008-0.121 1.439s0.986 0.486 1.409 0.123c1.747-1.5 3.127-2.685 6.872-0.57 1.799 1.016 3.25 1.4 4.457 1.4 2.115 0 3.486-1.178 4.671-2.195 0.423-0.363 0.477-1.008 0.122-1.439s-0.987-0.487-1.41-0.125z"></path>
</symbol>
<symbol id="icon-pool" viewBox="0 0 20 20">
<path d="M11.68 4.57q0-0.859 0.605-1.465t1.465-0.605 1.465 0.605 0.605 1.465-0.605 1.484-1.465 0.625-1.465-0.625-0.605-1.484zM7.227 10q-0.469 0-0.977-0.313-0.156-0.117-0.625-0.313l2.695-2.695-0.82-0.859q-1.25-1.25-3.32-1.25v-2.070q1.602 0 2.617 0.371t1.953 1.309l5.352 5.313q-0.234 0.156-0.352 0.195-0.508 0.313-0.977 0.313-0.43 0-0.938-0.313-0.859-0.508-1.836-0.508t-1.836 0.508q-0.508 0.313-0.938 0.313zM18.32 13.75q-0.898 0-1.797-0.547-0.43-0.273-0.977-0.273-0.508 0-0.938 0.273-0.898 0.547-1.836 0.547-0.898 0-1.797-0.547-0.43-0.273-0.977-0.273-0.508 0-0.938 0.273-0.898 0.547-1.836 0.547-0.898 0-1.797-0.547-0.43-0.273-0.977-0.273-0.508 0-0.938 0.273-0.898 0.547-1.836 0.547v-1.68q0.508 0 0.938-0.273 0.898-0.547 1.836-0.547 0.898 0 1.797 0.547 0.43 0.273 0.977 0.273 0.508 0 0.938-0.273 0.898-0.547 1.836-0.547 0.898 0 1.797 0.547 0.43 0.273 0.977 0.273 0.508 0 0.938-0.273 0.898-0.547 1.836-0.547 0.898 0 1.797 0.547 0.43 0.273 0.977 0.273v1.68zM18.32 17.5q-0.898 0-1.797-0.547-0.43-0.273-0.977-0.273-0.508 0-0.938 0.273-0.898 0.547-1.836 0.547-0.898 0-1.797-0.547-0.43-0.273-0.977-0.273-0.508 0-0.938 0.273-0.898 0.547-1.836 0.547t-1.836-0.547q-0.43-0.273-0.938-0.273-0.547 0-0.977 0.273-0.898 0.547-1.797 0.547v-1.68q0.508 0 0.938-0.273 0.898-0.547 1.836-0.547 0.898 0 1.797 0.547 0.43 0.273 0.977 0.273 0.508 0 0.938-0.273 0.898-0.547 1.836-0.547t1.836 0.547q0.43 0.273 0.938 0.273 0.547 0 0.977-0.273 0.898-0.547 1.797-0.547 0.938 0 1.836 0.547 0.43 0.273 0.938 0.273v1.68z"></path>
</symbol>
    <symbol id="icon-phone" viewBox="0 0 32 32">
      <path d="M15.331 19.76c-.026-.018-3.034-5.075-3.044-5.14-.622-1.359-1.124-2.749-.078-3.366l-4.341-7.32c-1.125.841-4.307 5.405 1.649 15.748 6.274 10.9 12.245 10.447 13.442 9.709l-4.23-7.145c-1 .588-1.842-.381-3.398-2.486zm10.531 6.857.001-.006-3.305-5.568a.924.924 0 0 0-1.264-.324l-2.024 1.197 4.242 7.166s2.024-1.191 2.023-1.195h.004a.922.922 0 0 0 .323-1.27zM14.786 9.736v-.004a.918.918 0 0 0 .325-1.265l.002-.006s-3.398-5.729-3.4-5.73a.921.921 0 0 0-1.263-.324L8.426 3.604l4.336 7.324s2.023-1.189 2.024-1.192z"/>
    </symbol>
       <symbol id="icon-facebook" viewBox="0 0 32 32">
      <path d="M19 6h5V0h-5c-3.86 0-7 3.14-7 7v3H8v6h4v16h6V16h5l1-6h-6V7c0-.542.458-1 1-1z"/>
    </symbol>
    <symbol id="icon-instagram" viewBox="0 0 32 32">
      <path d="M16 2.881c4.275 0 4.781.019 6.462.094 1.563.069 2.406.331 2.969.55a4.952 4.952 0 0 1 1.837 1.194 5.015 5.015 0 0 1 1.2 1.838c.219.563.481 1.412.55 2.969.075 1.688.094 2.194.094 6.463s-.019 4.781-.094 6.463c-.069 1.563-.331 2.406-.55 2.969a4.94 4.94 0 0 1-1.194 1.837 5.02 5.02 0 0 1-1.837 1.2c-.563.219-1.413.481-2.969.55-1.688.075-2.194.094-6.463.094s-4.781-.019-6.463-.094c-1.563-.069-2.406-.331-2.969-.55a4.952 4.952 0 0 1-1.838-1.194 5.02 5.02 0 0 1-1.2-1.837c-.219-.563-.481-1.413-.55-2.969-.075-1.688-.094-2.194-.094-6.463s.019-4.781.094-6.463c.069-1.563.331-2.406.55-2.969a4.964 4.964 0 0 1 1.194-1.838 5.015 5.015 0 0 1 1.838-1.2c.563-.219 1.412-.481 2.969-.55 1.681-.075 2.188-.094 6.463-.094zM16 0c-4.344 0-4.887.019-6.594.094-1.7.075-2.869.35-3.881.744-1.056.412-1.95.956-2.837 1.85a7.833 7.833 0 0 0-1.85 2.831C.444 6.538.169 7.7.094 9.4.019 11.113 0 11.656 0 16s.019 4.887.094 6.594c.075 1.7.35 2.869.744 3.881.413 1.056.956 1.95 1.85 2.837a7.82 7.82 0 0 0 2.831 1.844c1.019.394 2.181.669 3.881.744 1.706.075 2.25.094 6.594.094s4.888-.019 6.594-.094c1.7-.075 2.869-.35 3.881-.744 1.05-.406 1.944-.956 2.831-1.844s1.438-1.781 1.844-2.831c.394-1.019.669-2.181.744-3.881.075-1.706.094-2.25.094-6.594s-.019-4.887-.094-6.594c-.075-1.7-.35-2.869-.744-3.881a7.506 7.506 0 0 0-1.831-2.844A7.82 7.82 0 0 0 26.482.843C25.463.449 24.301.174 22.601.099c-1.712-.081-2.256-.1-6.6-.1z"/>
      <path d="M16 7.781c-4.537 0-8.219 3.681-8.219 8.219s3.681 8.219 8.219 8.219 8.219-3.681 8.219-8.219A8.221 8.221 0 0 0 16 7.781zm0 13.55a5.331 5.331 0 1 1 0-10.663 5.331 5.331 0 0 1 0 10.663zM26.462 7.456a1.919 1.919 0 1 1-3.838 0 1.919 1.919 0 0 1 3.838 0z"/>
    </symbol>
    <symbol id="icon-youtube" viewBox="0 0 32 32">
      <path d="M31.681 9.6s-.313-2.206-1.275-3.175C29.187 5.15 27.825 5.144 27.2 5.069c-4.475-.325-11.194-.325-11.194-.325h-.012s-6.719 0-11.194.325c-.625.075-1.987.081-3.206 1.356C.631 7.394.325 9.6.325 9.6s-.319 2.588-.319 5.181v2.425c0 2.587.319 5.181.319 5.181s.313 2.206 1.269 3.175c1.219 1.275 2.819 1.231 3.531 1.369 2.563.244 10.881.319 10.881.319s6.725-.012 11.2-.331c.625-.075 1.988-.081 3.206-1.356.962-.969 1.275-3.175 1.275-3.175s.319-2.587.319-5.181v-2.425c-.006-2.588-.325-5.181-.325-5.181zM12.694 20.15v-8.994l8.644 4.513-8.644 4.481z"/>
    </symbol>
    <symbol id="icon-washingmachine" viewBox="0 0 32 32">
      <path d="M4 13v15a1 1 0 0 0 1 1h21a1 1 0 0 0 1-1V13s-5.643-2.062-11.51-2.062C9.862 10.938 4 13 4 13zm17.5 7.125a5.75 5.75 0 1 1-11.5 0 5.75 5.75 0 1 1 11.5 0zM26 4H5a1 1 0 0 0-1 1v7s5.812-2 11.49-2C21.312 10 27 12 27 12V5a1 1 0 0 0-1-1zM11 8H6V6h5v2zm7.499 0a1 1 0 1 1 .001-1.999A1 1 0 0 1 18.499 8zM21.5 8a1 1 0 1 1 0-2 1 1 0 0 1 0 2zm2.938 0a1 1 0 1 1 0-2 1 1 0 0 1 0 2zM11.062 20.125a4.688 4.688 0 0 0 9.376 0c0-.006-1.604 1.646-4.688-.188-3.084-1.833-4.688.182-4.688.188z"/>
    </symbol>
    <symbol id="icon-cord" viewBox="0 0 32 32">
      <path d="M26.917 18.518 13.482 5.083a1.5 1.5 0 1 1 2.121-2.121l3.182 3.182 3.89-3.889a1.5 1.5 0 1 1 2.121 2.121l-3.889 3.889 2.828 2.828 3.889-3.889a1.5 1.5 0 0 1 2.122 2.121l-3.89 3.89 3.183 3.182a1.501 1.501 0 0 1-2.122 2.121zm-6.01 5.303c-1.297 1.296-7.071 1.414-7.071 1.414l-7.071-7.071s.118-5.774 1.414-7.071l4.95-4.949 12.728 12.728a6807.31 6807.31 0 0 0-4.95 4.949zM6.765 19.578l5.657 5.657a1 1 0 1 1-1.415 1.414l-5.656-5.657a.999.999 0 1 1 1.414-1.414zm2.828 7.071L8.532 27.71a1.5 1.5 0 0 1-2.121 0l-.354-.354-2.829 2.828-1.414-1.414 2.829-2.828-.353-.353c-.586-.586-.586-1.536 0-2.122s1.119-1.001 1.119-1.001l4.184 4.183z"/>
    </symbol>
    <symbol id="icon-car" viewBox="0 0 32 32">
      <path d="M27 22H4a2 2 0 0 1-2-2v-5a2 2 0 0 1 2-2h1s1.479-4.5 1.916-6 .896-2 2.001-2h13.166c1.104 0 1.438.312 2 2S26 13 26 13h1a2 2 0 0 1 2 2v5a2 2 0 0 1-2 2zM9 20h13v-1H9v1zm13-7c0-1.104-.896-2.125-2-2.125S18 11.896 18 13c0 .026 4 .026 4 0zM9 18h13v-1H9v1zm0-2h13v-1H9v1zm-4.938 1a2 2 0 1 0 4.001-.001A2 2 0 0 0 4.062 17zM23.083 7c-.25-.688-.447-1-1-1H16v1h.5a.5.5 0 0 1 0 1h-2a.5.5 0 0 1 0-1h.5V6H8.917c-.553 0-.751.125-1 1C7.666 7.875 6 13 6 13h11.46c.023-1.364 1.13-2.643 2.495-2.643s2.472 1.278 2.496 2.643H25s-1.667-5.312-1.917-6zm1.855 8.062a2 2 0 1 0 .001 4.001 2 2 0 0 0-.001-4.001zM7 25.5a1.5 1.5 0 0 1-3 0V23h3v2.5zm20 0a1.5 1.5 0 0 1-3 0V23h3v2.5z"/>
    </symbol>
    <symbol id="icon-bike" viewBox="0 0 38 32">
      <path d="M29.998 28.197a7.623 7.623 0 0 1-3.143-14.57l-1.014-2.283.165.399-6.944 9.321v1.869h1.017v1.018h-3.052v-1.018h1.018v-1.018l-2.877-.27c-.524 3.701-3.696 6.551-7.542 6.551A7.624 7.624 0 0 1 0 20.57a7.626 7.626 0 0 1 10.717-6.969l1.906-4.788-.865-2.416h-1.017c-.954 0-.699-1.017-.699-1.017s.063-.89.763-.89.699.636 1.843.636c1.095 0 2.669.317 2.669.317s.699.953-.635.953h-1.907l.723 2.597H24.55l-.868-1.973h-.675V6.004h4.067v1.017h-2.298l2.977 6.26a7.626 7.626 0 1 1 2.245 14.916zM7.627 13.96a6.61 6.61 0 1 0 0 13.219 6.604 6.604 0 0 0 6.53-5.639l-5.294-.545a1.003 1.003 0 0 1-.982.846 1.017 1.017 0 1 1 0-2.036c.12 0 .232.031.339.07l2.121-5.33a6.61 6.61 0 0 0-2.714-.585zm1.525 6.165 5.079.537c.001-.031.005-.061.005-.092a6.6 6.6 0 0 0-3.077-5.581l-2.007 5.136zm3.925-10.043-1.543 3.948a7.614 7.614 0 0 1 3.719 6.541c0 .066-.008.133-.01.199l1.726.182-3.892-10.87zm11.901-.686v.614h-11.12l4.05 10.839 7.687-10.065-.617-1.388zm5.02 4.564c-.637 0-1.251.095-1.834.264l2.374 5.424c.482.078.858.48.858.984a1.017 1.017 0 1 1-2.035 0c0-.273.111-.521.289-.705l-2.384-5.372a6.604 6.604 0 0 0-3.879 6.014 6.61 6.61 0 1 0 6.611-6.609z"/>
    </symbol>
    <symbol id="icon-globe" viewBox="0 0 32 32">
      <path d="M15.5 2C7.492 2 1 8.492 1 16.5S7.492 31 15.5 31 30 24.508 30 16.5 23.508 2 15.5 2zm-4.748 1.854c-.714 1.289-1.559 3.295-2.113 6.131H3.656a13.584 13.584 0 0 1 7.096-6.131zm-7.598 7.133H8.47a34.532 34.532 0 0 0-.415 5.012h-6.06a13.433 13.433 0 0 1 1.159-5.012zm-1.166 6.014H8.06a34.25 34.25 0 0 0 .422 5.012h-5.29c-.694-1.543-1.138-3.224-1.204-5.012zm1.682 6.014h4.977c.559 2.864 1.416 4.867 2.134 6.142a13.555 13.555 0 0 1-7.111-6.142zm11.392 6.994a13.41 13.41 0 0 1-3.045-.46c-.755-1.236-1.736-3.363-2.356-6.534h5.401v6.994zm0-7.996H9.484a34.514 34.514 0 0 1-.421-5.012h5.998v5.012zm0-6.014H9.058c.025-1.886.183-3.543.417-5.012h5.587v5.012zm0-6.014H9.64c.615-3.148 1.591-5.266 2.344-6.525a13.519 13.519 0 0 1 3.078-.47v6.995zm13.941 6.014H23.07a34.663 34.663 0 0 0-.416-5.012h5.172a13.457 13.457 0 0 1 1.177 5.012zm-1.681-6.014h-4.837c-.549-2.806-1.382-4.8-2.091-6.09 2.967 1.154 5.402 3.335 6.928 6.09zM16.063 2.989c1.067.047 2.102.216 3.092.493.751 1.263 1.72 3.372 2.331 6.503h-5.423V2.989zm0 7.998h5.587c.234 1.469.392 3.126.417 5.012h-6.004v-5.012zm0 6.014h5.998a34.235 34.235 0 0 1-.421 5.012h-5.577v-5.012zm0 12.99v-6.977h5.402c-.617 3.152-1.591 5.271-2.343 6.512-.978.272-2.005.418-3.059.465zm4.304-.877c.714-1.276 1.56-3.266 2.112-6.1h4.835c-1.522 2.766-3.967 4.95-6.947 6.1zm7.428-7.101h-5.152c.234-1.471.398-3.119.423-5.012h5.927c-.067 1.787-.508 3.468-1.198 5.012z"/>
    </symbol>
    <symbol id="icon-wi-fi" viewBox="0 0 40 32">
      <path d="M20 18c3.308 0 6.308 1.346 8.481 3.519l-2.827 2.827C24.205 22.897 22.205 22 20 22s-4.206.897-5.654 2.346l-2.827-2.827A11.963 11.963 0 0 1 20 18zM5.858 15.858C9.635 12.081 14.658 10 20 10s10.365 2.08 14.142 5.858l-2.828 2.828C28.292 15.664 24.274 14 20 14s-8.292 1.664-11.314 4.686l-2.828-2.828zM30.899 4.201a27.89 27.89 0 0 1 8.899 6l-2.828 2.828C32.437 8.496 26.41 6 19.999 6S7.561 8.496 3.028 13.029L.2 10.201A27.917 27.917 0 0 1 19.998 2c3.779 0 7.446.741 10.899 2.201zM18 28a2 2 0 1 1 3.999-.001A2 2 0 0 1 18 28z"/>
    </symbol>
    <symbol id="icon-menu" viewBox="0 0 32 32">
      <path stroke-linejoin="round" stroke-linecap="round" stroke-width="2.286" d="M4 16h24M4 8h24M4 24h24"/>
    </symbol>
    <symbol id="icon-close" viewBox="0 0 32 32">
      <path stroke-linejoin="round" stroke-linecap="round" stroke-width="4.571" d="M29.333 2.667 2.666 29.334m0-26.667 26.667 26.667"/>
    </symbol>
    <symbol id="icon-burger-btn" viewBox="0 0 36 32">
<path d="M1.199 4.002c0-0.637 0.253-1.247 0.703-1.697s1.061-0.703 1.697-0.703h28.8c0.637 0 1.247 0.253 1.697 0.703s0.703 1.061 0.703 1.697-0.253 1.247-0.703 1.697c-0.45 0.45-1.060 0.703-1.697 0.703h-28.8c-0.637 0-1.247-0.253-1.697-0.703s-0.703-1.061-0.703-1.697z"></path>
<path d="M1.199 16.002c0-0.637 0.253-1.247 0.703-1.697s1.061-0.703 1.697-0.703h28.8c0.637 0 1.247 0.253 1.697 0.703s0.703 1.061 0.703 1.697-0.253 1.247-0.703 1.697c-0.45 0.45-1.060 0.703-1.697 0.703h-28.8c-0.637 0-1.247-0.253-1.697-0.703s-0.703-1.061-0.703-1.697z"></path>
<path d="M1.199 28.002c0-0.637 0.253-1.247 0.703-1.697s1.061-0.703 1.697-0.703h28.8c0.637 0 1.247 0.253 1.697 0.703s0.703 1.060 0.703 1.697c0 0.636-0.253 1.247-0.703 1.697s-1.060 0.703-1.697 0.703h-28.8c-0.637 0-1.247-0.253-1.697-0.703s-0.703-1.061-0.703-1.697z"></path>
</symbol>
    <symbol id="icon-full-logo" viewBox="0 0 110 32">
      <path d="M16.403.142c.434-.05.936.047 1.354.174.945.288 1.714.905 2.169 1.785.474.902.564 1.957.252 2.927-.397 1.196-1.247 1.797-2.309 2.35l.012 3.489c.759.231 1.498.495 2.187.894 1.584.919 2.669 2.467 3.123 4.23a7.205 7.205 0 0 1-.76 5.459c-.887 1.493-2.3 2.597-3.993 3.019-2.211.552-4.086-.047-5.986-1.176a156.6 156.6 0 0 0-2.489 2.725c.366.864.487 1.77.244 2.687-.237.897-.866 1.666-1.67 2.121-.901.51-1.928.603-2.916.321-.981-.281-1.805-.889-2.284-1.801-.472-.897-.511-1.949-.206-2.907.348-1.089 1.057-1.759 2.053-2.257 1.072-.419 1.958-.281 3.005.096.872-.917 1.693-1.88 2.574-2.789-.968-1.898-1.281-3.515-.778-5.606-1.096-.511-2.153-1.108-3.249-1.62-.586.61-1.301 1.028-2.142 1.169-1.003.169-2.061-.105-2.885-.694a3.671 3.671 0 0 1-1.486-2.493c-.135-.97.12-2.038.741-2.803.64-.789 1.634-1.265 2.637-1.37a3.727 3.727 0 0 1 2.734.836c.976.818 1.258 1.834 1.376 3.045 1.039.637 2.229 1.129 3.312 1.698 1.409-1.665 2.439-2.191 4.492-2.824l.002-3.463a4.767 4.767 0 0 1-1.055-.561 3.715 3.715 0 0 1-1.473-2.501 3.76 3.76 0 0 1 .779-2.782C14.446.669 15.353.282 16.404.143zm4.528 17.225a4.35 4.35 0 1 0-8.663.76 4.35 4.35 0 0 0 8.662-.76zM102.107 11.958c.708.001 1.415.011 2.124.029l-.004 3.742c.546-.424 1.14-.739 1.831-.843.933-.141 1.884.1 2.637.669.908.687 1.384 1.844 1.523 2.949.175 1.401-.154 2.749-1.019 3.866-.574.554-1.263.941-2.057 1.072-1.165.191-2.088-.216-2.998-.894l-.004.817-2.032-.003-.001-11.404zm3.64 4.904c-.632.21-1.07.51-1.378 1.118-.342.675-.365 1.508-.099 2.211.204.538.585 1.004 1.118 1.244.385.175.749.18 1.164.155.66-.249 1.103-.569 1.402-1.229.311-.689.307-1.52.011-2.214-.228-.533-.632-.963-1.177-1.174-.341-.131-.682-.149-1.042-.111zM41.272 11.936c1.246 3.84 2.84 7.575 4.055 11.425l-2.296.003c-.269-.822-.529-1.752-.939-2.512-.268-.115-.586-.076-.873-.073a122.7 122.7 0 0 1-3.323-.012c-.348.849-.628 1.722-.903 2.596l-2.339-.002c1.221-3.833 2.677-7.617 3.996-11.42.872.019 1.749-.001 2.622-.005zm-1.308 2.839c-.483 1.374-.934 2.768-1.464 4.125l1.681-.001 1.306-.015c-.184-.518-1.25-3.88-1.524-4.109zM89.685 11.961l2.196.013c-.03 2.647-.007 5.298-.007 7.945-.001 1.093.11 2.287-.013 3.365l-.121.083h-2.058l-.004-4.889c-1.645-.046-3.303-.005-4.949-.003l.001 4.894-2.209-.004.009-11.401 2.2.005.002 4.662h4.957l-.003-4.67zM93.202 15.121c.729.021 1.46.013 2.188.017-.009 1.165-.193 4.384.089 5.347.111.38.333.728.693.913.541.278 1.09.117 1.628-.072.238-.266.443-.515.561-.859.386-1.123.18-4.006.174-5.343.694.019 1.391.004 2.085 0-.016.8-.003 1.603-.004 2.404l.011 5.834c-.683.01-1.365.005-2.047-.015l-.063-.074a1.94 1.94 0 0 0-.018-.487c-.639.277-1.209.697-1.936.712-.843.017-1.758-.245-2.363-.852-.459-.459-.739-1.076-.883-1.703-.31-1.348-.127-4.332-.113-5.824zM63.686 14.891c1.089-.085 2.224-.008 3.104.725.617.514.816 1.13.883 1.897l-1.968-.002c-.113-.21-.226-.454-.404-.619a1.505 1.505 0 0 0-1.078-.377c-.298.016-.679.135-.865.387-.113.154-.175.311-.132.503.224 1.009 2.79.884 3.607 1.419.52.341.919.951 1.034 1.56a2.289 2.289 0 0 1-.409 1.775c-.627.865-1.593 1.175-2.599 1.329-.931.056-2.011-.194-2.756-.761-.699-.532-.95-1.185-1.045-2.025.663.001 1.326-.005 1.989-.018.039.125.082.245.145.361.289.533.865.651 1.4.808.353-.081.831-.172 1.082-.457.151-.172.204-.471.14-.691-.245-.843-2.703-.943-3.556-1.468-.505-.311-.876-.764-1.011-1.349-.121-.53-.075-1.125.223-1.59.538-.84 1.28-1.185 2.216-1.408zM76.93 14.889c.62-.05 1.227-.047 1.831.117.697.189 1.438.578 1.79 1.239.169.317.3.886.186 1.237-.565.122-1.255.04-1.835.033-.085-.287-.158-.509-.391-.707a1.415 1.415 0 0 0-1.062-.322c-.3.031-.685.178-.852.447-.1.16-.141.325-.078.509.362 1.068 2.535.814 3.38 1.297.538.308.988.848 1.141 1.454.164.65.056 1.372-.319 1.931-.56.835-1.449 1.149-2.388 1.331-.922.114-1.989-.082-2.759-.613-.791-.545-1.028-1.229-1.206-2.123l1.973-.015c.12.302.229.537.485.746.341.279.745.406 1.184.347.341-.045.676-.202.88-.487.133-.187.2-.414.136-.642-.247-.878-2.426-.823-3.29-1.288-.584-.315-1.046-.838-1.231-1.481a2.017 2.017 0 0 1 .196-1.599c.477-.81 1.353-1.206 2.231-1.409zM52.641 12.857c.655.023 1.315.009 1.97.011-.007.74.004 1.48.032 2.219l1.944.001-.004 1.694-1.851-.001c.001 1.066-.243 3.817.246 4.641.382.301 1.145.189 1.609.183l-.007 1.404c.004.145.004.218-.07.344-.259.124-.524.152-.81.154-.752.007-1.791-.129-2.331-.693-1.086-1.131-.739-4.457-.734-6.035l-1.254.002.004-1.698 1.249.008.007-2.236zM69.54 12.848l1.934.011c-.015.741.016 1.485.03 2.226l1.976-.004-.003 1.702-1.859-.001c.023 1.015-.226 3.85.234 4.617.494.295 1.113.216 1.669.215-.007.489.003.979.005 1.469l-.023.186c-.191.202-.486.194-.747.2-.794.019-1.891-.107-2.467-.71-1.075-1.126-.74-4.405-.731-5.978l-1.323.001c-.017-.564-.01-1.129-.015-1.692l1.318.007.004-2.249zM27.821 11.582c.102-.005.2-.007.302.008.316.046.628.198.802.476.185.294.21.687.235 1.028.125 1.688.032 3.444.032 5.138 0 1.384.153 3.26-.104 4.592-.081.419-.359.619-.691.846-.127.015-.259.033-.387.026a1.043 1.043 0 0 1-.74-.361c-.183-.216-.177-.648-.193-.919-.116-1.942-.018-3.946-.016-5.893.001-1.107-.151-3.225.082-4.213.083-.353.402-.539.68-.727zM50.243 15.058l.278-.003c.329.368.166 1.535.155 2.018-.696-.007-1.354-.035-1.899.471-1.023.949-.678 4.425-.688 5.82-.548-.005-1.617.195-2.035-.154l-.022-.346c.01-2.586-.055-5.169-.038-7.754.664.021 1.33.007 1.994.003l-.023 1.142c.123-.177.246-.366.389-.527.503-.568 1.186-.619 1.891-.669zM57.795 15.092l2.086.001.005 8.275-2.11-.003.019-8.273zM24.906 14.293c.343.063.645.192.845.489.308.459.316 4.955.162 5.596-.084.351-.388.522-.675.691-.33-.02-.763-.049-.983-.335-.327-.425-.3-5.203-.114-5.802.108-.348.466-.495.765-.639zM58.701 11.683a1.153 1.153 0 1 1 .27 2.29 1.153 1.153 0 0 1-.27-2.29z"/>
    </symbol>
      <symbol xmlns="http://www.w3.org/2000/svg" fill="none" viewBox="0 0 20 20" id="star-empty">
      <path fill="#fff" d="M9.07 1.318c.345-.817 1.515-.817 1.86 0l2.028 4.819c.145.344.473.58.849.609l5.266.417c.892.07 1.254 1.17.574 1.746l-4.012 3.395a.987.987 0 0 0-.325.986l1.226 5.077c.208.86-.74 1.54-1.503 1.079l-4.508-2.72a1.017 1.017 0 0 0-1.05 0l-4.508 2.72c-.764.46-1.711-.22-1.503-1.08l1.225-5.076a.987.987 0 0 0-.324-.986L.353 8.91c-.68-.575-.318-1.675.574-1.746l5.266-.417c.376-.03.704-.265.849-.61l2.029-4.818Z"></path>
    </symbol>
    <symbol xmlns="http://www.w3.org/2000/svg" fill="none" viewBox="0 0 20 20" id="star-full">
      <path fill="#764191" d="M9.071 1.318c.344-.817 1.514-.817 1.858 0l2.029 4.819c.145.344.473.58.849.609l5.266.417c.892.07 1.254 1.17.574 1.746l-4.012 3.395a.987.987 0 0 0-.324.986l1.226 5.077c.207.86-.74 1.54-1.504 1.079l-4.508-2.72a1.017 1.017 0 0 0-1.05 0l-4.508 2.72c-.764.46-1.71-.22-1.503-1.08L4.69 13.29a.987.987 0 0 0-.325-.986L.353 8.91c-.68-.575-.318-1.675.574-1.746l5.266-.417c.377-.03.704-.265.85-.61L9.07 1.319Z"></path>
    </symbol>
    <svg aria-hidden="true" style="position: absolute; width: 0; height: 0; overflow: hidden;" version="1.1" xmlns="http://www.w3.org/2000/svg" xmlns:xlink="http://www.w3.org/1999/xlink">
<defs>
<symbol id="icon-arrow-thick-left" viewBox="0 0 20 20">
<path d="M10 13h8v-6h-8v-5l-8 8 8 8v-5z"></path>
</symbol>
<symbol id="icon-arrow-thick-right" viewBox="0 0 20 20">
<path d="M10 7h-8v6h8v5l8-8-8-8v5z"></path>
</symbol>
<symbol id="icon-chevron-thin-right" viewBox="0 0 20 20">
<path d="M13.25 10l-7.141-7.42c-0.268-0.27-0.268-0.707 0-0.979 0.268-0.27 0.701-0.27 0.969 0l7.83 7.908c0.268 0.271 0.268 0.709 0 0.979l-7.83 7.908c-0.268 0.271-0.701 0.27-0.969 0s-0.268-0.707 0-0.979l7.141-7.417z"></path>
</symbol>
<symbol id="icon-chevron-thin-left" viewBox="0 0 20 20">
<path d="M13.891 17.418c0.268 0.272 0.268 0.709 0 0.979s-0.701 0.271-0.969 0l-7.83-7.908c-0.268-0.27-0.268-0.707 0-0.979l7.83-7.908c0.268-0.27 0.701-0.27 0.969 0s0.268 0.709 0 0.979l-7.141 7.419 7.141 7.418z"></path>
</symbol>
</defs>
</svg>
  </defs>
</svg>


