<svg aria-hidden="true" style="position: absolute; width: 0; height: 0; overflow: hidden;" version="1.1" xmlns="http://www.w3.org/2000/svg" xmlns:xlink="http://www.w3.org/1999/xlink">
<defs>
<symbol id="icon-home" viewBox="0 0 32 32">
<path d="M28 4v24h-8v-8h-8v8h-8v-24h4v4h4v-4h8v4h4v-4h4z"></path>
</symbol>
<symbol id="icon-home1" viewBox="0 0 32 32">
<path d="M28.831 19.019l-2.84-2.841v14.822c0 0.553-0.446 1-0.999 1h-3.996c-0.553 0-0.999-0.447-0.999-1v-11.994c0-0.553-0.447-1-1-1h-5.995c-0.552 0-0.999 0.447-0.999 1v11.994c0 0.553-0.448 1-0.999 1h-3.996c-0.552 0-1-0.447-1-1v-14.822l-2.84 2.841-3.168-3.17 15.842-15.849 0.158 0.158 0.158-0.158 7.835 7.839v-5.826h3.997v9.825l4.010 4.011-3.169 3.17z"></path>
</symbol>
<symbol id="icon-home11" viewBox="0 0 32 32">
<path d="M32 18.451l-16-12.42-16 12.42v-5.064l16-12.42 16 12.42zM28 18v12h-8v-8h-8v8h-8v-12l12-9z"></path>
</symbol>
</defs>
</svg>
