<svg xmlns="http://www.w3.org/2000/svg" version="1.1" xmlns:xlink="http://www.w3.org/1999/xlink" viewBox="0 0 200 200"><rect width="200" height="200" fill="url('#gradient')"></rect><defs><linearGradient id="gradient" gradientTransform="rotate(45 0.5 0.5)"><stop offset="0%" stop-color="#294537"></stop><stop offset="100%" stop-color="#294537"></stop></linearGradient></defs><g><g fill="#4a7b63" transform="matrix(2.9146110056925996,0,0,2.9146110056925996,6.875051222670919,115.79711367192712)" stroke="#75da94" stroke-width="0.2"><path d="M6.85 0L1.07 0L1.07-14.22L6.18-14.22Q8.93-14.22 10.36-13.21Q11.79-12.21 11.79-10.29L11.79-10.29Q11.79-9.19 11.28-8.41Q10.77-7.63 9.79-7.26L9.79-7.26Q10.90-6.96 11.49-6.16Q12.09-5.36 12.09-4.21L12.09-4.21Q12.09-2.12 10.77-1.07Q9.44-0.02 6.85 0L6.85 0ZM6.90-6.04L4.50-6.04L4.50-2.64L6.75-2.64Q7.68-2.64 8.17-3.06Q8.67-3.49 8.67-4.26L8.67-4.26Q8.67-6.04 6.90-6.04L6.90-6.04ZM4.50-11.57L4.50-8.29L6.29-8.29Q7.41-8.30 7.89-8.70Q8.37-9.10 8.37-9.88L8.37-9.88Q8.37-10.78 7.85-11.18Q7.33-11.57 6.18-11.57L6.18-11.57L4.50-11.57ZM17.29-10.57L17.29 0L13.99 0L13.99-10.57L17.29-10.57ZM13.80-13.29L13.80-13.29Q13.80-13.99 14.31-14.44Q14.81-14.89 15.63-14.89Q16.44-14.89 16.94-14.44Q17.45-13.99 17.45-13.29Q17.45-12.59 16.94-12.14Q16.44-11.69 15.63-11.69Q14.81-11.69 14.31-12.14Q13.80-12.59 13.80-13.29ZM18.94-5.24L18.94-5.36Q18.94-6.96 19.46-8.19Q19.99-9.42 20.98-10.09Q21.96-10.76 23.27-10.76L23.27-10.76Q24.92-10.76 25.85-9.65L25.85-9.65L25.97-10.57L28.96-10.57L28.96-0.40Q28.96 1.00 28.31 2.03Q27.66 3.06 26.43 3.61Q25.20 4.16 23.57 4.16L23.57 4.16Q22.41 4.16 21.32 3.72Q20.23 3.28 19.66 2.58L19.66 2.58L21.04 0.64Q21.95 1.73 23.46 1.73L23.46 1.73Q25.64 1.73 25.64-0.52L25.64-0.52L25.64-0.85Q24.70 0.20 23.25 0.20L23.25 0.20Q21.32 0.20 20.13-1.28Q18.94-2.76 18.94-5.24L18.94-5.24ZM22.24-5.16L22.24-5.16Q22.24-3.86 22.72-3.10Q23.21-2.34 24.09-2.34L24.09-2.34Q25.16-2.34 25.64-3.06L25.64-3.06L25.64-7.50Q25.17-8.22 24.11-8.22L24.11-8.22Q23.23-8.22 22.73-7.44Q22.24-6.65 22.24-5.16ZM34.30-10.57L34.30 0L31.00 0L31.00-10.57L34.30-10.57ZM30.80-13.29L30.80-13.29Q30.80-13.99 31.31-14.44Q31.82-14.89 32.63-14.89Q33.44-14.89 33.95-14.44Q34.45-13.99 34.45-13.29Q34.45-12.59 33.95-12.14Q33.44-11.69 32.63-11.69Q31.82-11.69 31.31-12.14Q30.80-12.59 30.80-13.29ZM35.92-4.82L35.91-5.38Q35.91-6.96 36.52-8.20Q37.14-9.43 38.29-10.10Q39.44-10.76 41.00-10.76L41.00-10.76Q43.37-10.76 44.74-9.29Q46.10-7.82 46.10-5.29L46.10-5.29L46.10-5.18Q46.10-2.71 44.73-1.25Q43.36 0.20 41.02 0.20L41.02 0.20Q38.76 0.20 37.39-1.16Q36.03-2.51 35.92-4.82L35.92-4.82ZM39.21-5.77L39.20-5.18Q39.20-3.71 39.66-3.03Q40.12-2.34 41.02-2.34L41.02-2.34Q42.77-2.34 42.81-5.05L42.81-5.05L42.81-5.38Q42.81-8.22 41.00-8.22L41.00-8.22Q39.35-8.22 39.21-5.77L39.21-5.77ZM51.03-15L51.03 0L47.72 0L47.72-15L51.03-15ZM52.65-4.82L52.64-5.38Q52.64-6.96 53.25-8.20Q53.87-9.43 55.02-10.10Q56.17-10.76 57.72-10.76L57.72-10.76Q60.10-10.76 61.46-9.29Q62.83-7.82 62.83-5.29L62.83-5.29L62.83-5.18Q62.83-2.71 61.46-1.25Q60.09 0.20 57.74 0.20L57.74 0.20Q55.49 0.20 54.12-1.16Q52.75-2.51 52.65-4.82L52.65-4.82ZM55.94-5.77L55.93-5.18Q55.93-3.71 56.39-3.03Q56.85-2.34 57.74-2.34L57.74-2.34Q59.50-2.34 59.54-5.05L59.54-5.05L59.54-5.38Q59.54-8.22 57.72-8.22L57.72-8.22Q56.07-8.22 55.94-5.77L55.94-5.77Z"></path></g></g></svg>