<!-- Generated by IcoMoon.io -->
<svg version="1.1" xmlns="http://www.w3.org/2000/svg" width="3126" height="1024" viewBox="0 0 3126 1024">
<g id="icomoon-ignore">
</g>
<path fill="#757d85" d="M0 0c1031.545 0 2063.091 0 3125.895 0 0 337.92 0 675.84 0 1024-1031.545 0-2063.091 0-3125.895 0 0-337.92 0-675.84 0-1024z"></path>
<path fill="#e1e2e4" d="M134.737 687.158c942.619 0 1885.238 0 2856.421 0 0 17.785 0 35.571 0 53.895-942.619 0-1885.238 0-2856.421 0 0-17.785 0-35.571 0-53.895z"></path>
<path fill="#737c84" d="M1926.737 175.158c50.553 23.471 73.475 43.826 106.105 88.421 26.531 81.066 27.040 160.131-0.842 240.842-35.067 49.577-60.883 82.334-122.789 94.526-63.726 4.255-106.896-1.14-157.632-41.474-59.445-60.284-68.733-117.841-72.421-200.421 1.173-66.343 13.568-104.382 58.947-154.947 60.28-40.187 117.968-35.035 188.632-26.947z"></path>
<path fill="#727b83" d="M2856.421 175.158c52.882 25.974 86.719 66.649 107.789 121.263 17.967 173.404 17.967 173.404-23.579 239.158-44.166 44.166-80.675 61.22-143.158 62.316-61.66-1.623-96.596-16.82-143.158-58.947-52.26-86.766-53.285-170.656-40.421-269.474 49.361-103.292 139.66-107.374 242.526-94.316z"></path>
<path fill="#d5d7da" d="M121.263 148.211c32.297-1.463 64.528-2.527 96.842-3.368 9.075-0.452 18.15-0.903 27.5-1.368 48.951-0.955 75.673 3.439 117.605 29.474 27.526 29.158 27.526 29.158 34.263 67.895-7.573 47.33-23.476 81.504-47.158 122.947 8.059 3.335 16.118 6.669 24.421 10.105 35.041 20.023 50.279 35.429 69.895 70.737 7.123 40.957 8.178 67.338-13.737 103.526-29.181 36.763-49.104 56.649-94.053 71.632-34.663 0.947-68.937 1.263-103.579 0.842-9.457-0.061-18.914-0.122-28.658-0.184-23.29-0.158-46.579-0.4-69.868-0.658 8.893-8.893 17.785-17.785 26.947-26.947 5.032-43.188 5.032-43.188 5.579-94 0.261-9.233 0.522-18.466 0.791-27.978 0.806-29.514 1.431-59.029 2.051-88.548 0.514-20 1.041-40 1.579-60 1.295-49.050 2.427-98.102 3.474-147.158-17.785-8.893-35.571-17.785-53.895-26.947z"></path>
<path fill="#d4d6d9" d="M2888.263 157.895c66.918 31.254 109.872 71.639 143.316 138.526 10.645 90.333 5.967 159.006-48.053 233.684-46.186 53.359-88.779 85.961-160.158 92.895-82.663 2.194-146.59 0.552-209.474-57.105-51.726-55.938-71.841-107.473-74.947-183.579 3.895-76.21 25.967-120.021 82.105-172.579 80.42-69.579 163.869-83.272 267.211-51.842zM2627.368 242.526c-33.76 67.52-25.242 176.691-3.789 247.579 27.012 50.539 58.323 82.618 111.579 102.737 58.019 7.503 105.632 6.456 160-16 46.712-39.843 66.946-75.565 74.895-136.789 2.826-124.102 2.826-124.102-59.737-224.474-53.565-47.884-95.943-47.889-165.684-46.211-56.716 9.016-79.157 31.040-117.263 73.158z"></path>
<path fill="#dddee0" d="M1972.789 157.526c62.977 28.239 102.191 60.378 129.105 125.421 12.314 89.009 18.412 175.291-34.526 251.789-61.782 67.099-126.001 86.942-215.579 90.947-66.171-1.994-103.839-14.427-154.105-59.789-65.71-72.814-73.643-132.090-72.947-227.895 8.69-64.766 38.473-106.205 86.421-149.368 78.801-56.737 169.48-57.456 261.632-31.105zM1711.158 242.526c-40.293 60.439-33.199 117.782-26.947 188.632 13.649 61.706 44.912 111.35 96.053 149.737 52.062 24.673 104.339 23.232 159.947 11.947 45.394-22.79 73.747-52.714 96.105-98.895 22.269-68.311 24.858-144.603 1.947-213.211-27.519-52.365-56.135-85.544-111.526-105.579-93.465-12.547-156.596-14.446-215.579 67.368z"></path>
<path fill="#d9dbdd" d="M1069.474 146.526c9.066-0.052 18.133-0.104 27.474-0.158 44.985 0.089 86.157 1.423 129.158 15.316 0 26.678 0 53.356 0 80.842-5.836-6.392-11.672-12.783-17.684-19.368-43.77-40.528-92.114-37.499-149.053-38.737-15.111-0.504-30.221-1.007-45.789-1.526-52.488 6.926-73.591 22.782-110.842 59.632-34.686 67.796-29.066 129.729-13.474 202.105 18.036 50.312 35.407 76.079 74.105 112.842 67.583 31.378 121.241 25.511 195.368 21.895 0-62.248 0-124.497 0-188.632 26.678 0 53.356 0 80.842 0-0.807 33.158-1.978 66.234-3.368 99.368-0.287 14.121-0.287 14.121-0.579 28.526-1.316 27.368-1.316 27.368-9.526 74.211-50.702 45.217-131.572 33.076-195.526 31.947-79.664-8.475-124.004-37.574-176.211-96.579-41.224-57.097-55.33-106.342-50.632-176.579 14.866-89.698 69.582-138.283 139.421-189.947 40.465-20.232 81.995-15.41 126.316-15.158z"></path>
<path fill="#dedfe1" d="M2236.632 161.684c26.678 0 53.356 0 80.842 0-0.071 12.174-0.141 24.348-0.214 36.891-0.229 45.022-0.398 90.043-0.526 135.066-0.068 19.513-0.16 39.026-0.276 58.539-0.163 27.992-0.24 55.984-0.299 83.977-0.071 16.864-0.141 33.727-0.214 51.102-2.901 37.251-2.901 37.251 15.003 52.109 27.388 3.21 27.388 3.21 58.947 3.368 10.664 0.347 21.328 0.695 32.316 1.053 36.336-5.355 47.614-16.885 70.421-44.842-4.446 26.678-8.893 53.356-13.474 80.842-88.926 0-177.853 0-269.474 0 8.893-8.893 17.785-17.785 26.947-26.947 2.356-32.841 3.123-64.126 2.632-96.947-0.057-14.298-0.057-14.298-0.116-28.884-0.151-30.479-0.489-60.954-0.832-91.431-0.135-20.649-0.258-41.298-0.368-61.947-0.297-50.651-0.763-101.298-1.316-151.947z"></path>
<path fill="#747d85" d="M229.053 363.789c90.316 10.211 90.316 10.211 126.316 39.579 39.558 50.208 39.836 85.39 35.368 149.053-13.474 26.105-13.474 26.105-40.421 40.421-37.139 3.953-70.14 2.429-107.789 0-13.474-13.474-13.474-13.474-14.789-61.947 0.090-20.053 0.251-40.106 0.474-60.158 0.061-10.221 0.122-20.443 0.184-30.974 0.159-25.325 0.401-50.649 0.658-75.974z"></path>
<path fill="#dddee0" d="M1374.316 148.211c44.463 0 88.926 0 134.737 0-4.446 8.893-8.893 17.785-13.474 26.947-3.159 59.628-3.077 119.305-3.237 179.007-0.131 29.722-0.549 59.432-0.974 89.151-0.088 18.824-0.159 37.649-0.211 56.474-0.126 17.186-0.252 34.372-0.382 52.079 1.585 13.521 3.17 27.043 4.803 40.974 13.339 8.893 26.678 17.785 40.421 26.947-48.909 0-97.819 0-148.211 0 8.893-13.339 17.785-26.678 26.947-40.421 4.985-43.114 4.985-43.114 5.579-92.368 0.261-8.915 0.522-17.829 0.791-27.014 0.804-28.415 1.43-56.83 2.051-85.249 0.515-19.29 1.041-38.579 1.579-57.868 1.293-47.234 2.425-94.47 3.474-141.711-17.785-8.893-35.571-17.785-53.895-26.947z"></path>
<path fill="#d6d8da" d="M565.895 148.211c44.463 0 88.926 0 134.737 0-8.893 8.893-17.785 17.785-26.947 26.947-5.377 59.533-4.433 119.258-4.253 179.007 0.043 29.724-0.274 59.43-0.615 89.151-0.031 18.825-0.040 37.649-0.026 56.474-0.040 17.186-0.080 34.372-0.122 52.079 1.655 13.521 3.311 27.043 5.016 40.974 13.339 8.893 26.678 17.785 40.421 26.947-48.909 0-97.819 0-148.211 0 4.446-8.893 8.893-17.785 13.474-26.947 8.893 0 17.785 0 26.947 0 0-137.836 0-275.672 0-417.684-13.339-4.446-26.678-8.893-40.421-13.474 0-4.446 0-8.893 0-13.474z"></path>
<path fill="#757e86" d="M229.053 175.158c80.842 0 80.842 0 106.105 21.895 19.391 40.936 20.878 68.034 15.158 112.842-15.158 25.263-15.158 25.263-40.421 40.421-26.678 0-53.356 0-80.842 0 0-57.802 0-115.604 0-175.158z"></path>
<path fill="#dcdde0" d="M2573.474 309.895c8.893 4.446 17.785 8.893 26.947 13.474 6.632 27.474 6.632 27.474 11.789 62.316 12.337 66.847 29.463 111.312 69.053 166.737 35.035 25.103 35.035 25.103 67.368 40.421 0 4.446 0 8.893 0 13.474-56.457 6.721-76.965 2.684-124.632-30.316-44.321-44.321-62.254-68.365-67.105-131.105 0.191-14.259 0.382-28.519 0.579-43.211 0.087-14.364 0.174-28.727 0.263-43.526 2.263-34.789 2.263-34.789 15.737-48.263z"></path>
<path fill="#dadcde" d="M336.842 202.105c17.785 0 35.571 0 53.895 0 4.693 65.706-7.857 104.697-40.421 161.684 8.059 3.335 16.118 6.669 24.421 10.105 35.041 20.023 50.279 35.429 69.895 70.737 2.526 43.789 2.526 43.789 0 80.842-17.785 4.446-35.571 8.893-53.895 13.474-6.579-26.754-13.158-53.509-19.737-80.263-5.999-22.903-13.197-45.487-20.684-67.947-8.893-4.446-17.785-8.893-26.947-13.474 4.446-8.893 8.893-17.785 13.474-26.947-8.893-4.446-17.785-8.893-26.947-13.474 8.893-8.893 17.785-17.785 26.947-26.947 3.262-26.695 3.262-26.695 1.684-55.579-0.834-25.844-0.834-25.844-1.684-52.211z"></path>
<path fill="#afb4b8" d="M1738.105 808.421c73.143-4.876 73.143-4.876 106.105 16 20.323 32.742 20.012 53.931 15.158 91.789-26.947 26.947-26.947 26.947-75.789 28.632-15.006-0.556-30.013-1.112-45.474-1.684 0-44.463 0-88.926 0-134.737z"></path>
<path fill="#c6c9cd" d="M1468.632 175.158c4.446 0 8.893 0 13.474 0 0.196 12.512 0.393 25.024 0.595 37.914 0.822 46.359 1.821 92.707 2.941 139.059 0.448 20.073 0.826 40.148 1.132 60.224 0.451 28.836 1.156 57.657 1.911 86.487 0.353 17.358 0.706 34.715 1.069 52.599 1.922 13.662 3.845 27.325 5.826 41.401 13.339 8.893 26.678 17.785 40.421 26.947-48.909 0-97.819 0-148.211 0 4.446-8.893 8.893-17.785 13.474-26.947 17.785 0 35.571 0 53.895 0-0.071-12.174-0.141-24.348-0.214-36.891-0.229-45.022-0.398-90.043-0.526-135.066-0.068-19.513-0.16-39.026-0.276-58.539-0.163-27.992-0.24-55.984-0.299-83.977-0.071-16.864-0.141-33.727-0.214-51.102 1.53-38.635 1.53-38.635 15.003-52.109z"></path>
<path fill="#d1d3d6" d="M2816 161.684c0 4.446 0 8.893 0 13.474-9.101 1.164-18.202 2.327-27.579 3.526-54.756 8.625-96.477 15.605-141.684 48.684-30.096 65.425-30.568 132.501-32.842 203.789-4.446 0-8.893 0-13.474 0-4.446-35.571-8.893-71.141-13.474-107.789-4.446 0-8.893 0-13.474 0-4.446 44.463-8.893 88.926-13.474 134.737-4.446 0-8.893 0-13.474 0-8.379-130.808-8.379-130.808 21.895-193.684 81.807-90.419 127.141-120.22 247.579-102.737z"></path>
<path fill="#dee0e2" d="M2074.947 282.947c8.893 0 17.785 0 26.947 0 1.091 30.589 1.875 61.188 2.526 91.789 0.469 17.038 0.938 34.077 1.421 51.632-3.947 45.211-3.947 45.211-24.316 71.474-6.617 4.672-13.235 9.344-20.053 14.158-19.189-38.378-15.764-71.786-16-114.526-0.287-23.552-0.287-23.552-0.579-47.579 3.105-40 3.105-40 30.053-66.947z"></path>
<path fill="#9fa4aa" d="M2223.158 808.421c33.347 6.669 33.347 6.669 67.368 13.474 11.842 82.895 11.842 82.895 13.474 107.789-4.446 4.446-8.893 8.893-13.474 13.474-22.232 0-44.463 0-67.368 0 0-44.463 0-88.926 0-134.737z"></path>
<path fill="#dcdde0" d="M2762.105 148.211c80.259-6.688 134.443 9.915 202.105 53.895 13.858 13.078 27.457 26.456 40.421 40.421-8.893 17.785-17.785 35.571-26.947 53.895-8.893 0-17.785 0-26.947 0-7.781-12.505-15.562-25.011-23.579-37.895-33.832-47.928-57.82-61.144-111.158-83.368-17.965-8.982-35.93-17.965-53.895-26.947z"></path>
<path fill="#d3d5d8" d="M970.105 148.211c32.562-0.365 65.121-0.631 97.684-0.842 9.188-0.113 18.376-0.226 27.842-0.342 45.501-0.221 86.993 0.426 130.474 14.658 0 26.678 0 53.356 0 80.842-5.836-6.392-11.672-12.783-17.684-19.368-49.023-45.391-114.499-38.948-177.737-42.895-33.632-5.105-33.632-5.105-60.579-32.053z"></path>
<path fill="#e5e6e8" d="M1158.737 390.737c26.678 0 53.356 0 80.842 0-4.446 62.248-8.893 124.497-13.474 188.632-13.339-4.446-26.678-8.893-40.421-13.474-0.816-10.386-1.633-20.773-2.474-31.474-1.129-13.513-2.258-27.025-3.421-40.947-1.094-13.443-2.188-26.886-3.316-40.737-2.237-34.773-2.237-34.773-17.737-62z"></path>
<path fill="#b1b5ba" d="M943.158 808.421c8.893 0 17.785 0 26.947 0 0 44.463 0 88.926 0 134.737-8.893 0-17.785 0-26.947 0-23.099-26.399-45.596-53.34-67.368-80.842-4.446 26.678-8.893 53.356-13.474 80.842-4.446 0-8.893 0-13.474 0 0-40.017 0-80.034 0-121.263 53.895 26.947 53.895 26.947 80.842 53.895 4.446-22.232 8.893-44.463 13.474-67.368z"></path>
<path fill="#d1d3d6" d="M2034.526 458.105c26.947 26.947 26.947 26.947 26.947 58.947-19.253 50.54-47.453 64.029-94.316 89.263-40.551 13.517-57.315 18.117-96.316 0.105-8.233-4.481-16.465-8.962-24.947-13.579 8.128-1.164 16.257-2.327 24.632-3.526 72.383-12.679 72.383-12.679 130.316-56.263 21.689-34.329 21.689-34.329 33.684-74.947z"></path>
<path fill="#707982" d="M1765.053 821.895c33.347 6.669 33.347 6.669 67.368 13.474 0 26.678 0 53.356 0 80.842-22.232 4.446-44.463 8.893-67.368 13.474 0-35.571 0-71.141 0-107.789z"></path>
<path fill="#c6c9cd" d="M2613.895 256c0 57.802 0 115.604 0 175.158-4.446 0-8.893 0-13.474 0-4.446-35.571-8.893-71.141-13.474-107.789-4.446 0-8.893 0-13.474 0-4.446 44.463-8.893 88.926-13.474 134.737-4.446 0-8.893 0-13.474 0-8.47-136.462-8.47-136.462 26.105-184.421 27.789-17.684 27.789-17.684 41.263-17.684z"></path>
<path fill="#ccced1" d="M1899.789 161.684c0 4.446 0 8.893 0 13.474-7.816 0.191-15.632 0.382-23.684 0.579-83.080 5.073-118.513 23.278-178.421 80.263-8.893 0-17.785 0-26.947 0 39.672-111.082 129.378-114.694 229.053-94.316z"></path>
<path fill="#c6c9cd" d="M2479.158 538.947c15.158 50.526 15.158 50.526 0 80.842-88.926 0-177.853 0-269.474 0 59.86-39.907 115.090-26.286 185.263-22.632 44.933 0.347 44.933 0.347 69.895-31.368 7.086-13.287 7.086-13.287 14.316-26.842z"></path>
<path fill="#afb4b9" d="M363.789 821.895c8.893 0 17.785 0 26.947 0 13.339 40.017 26.678 80.034 40.421 121.263-8.893 0-17.785 0-26.947 0 0-13.339 0-26.678 0-40.421-17.785 0-35.571 0-53.895 0 0 13.339 0 26.678 0 40.421-8.893-4.446-17.785-8.893-26.947-13.474 13.339-35.571 26.678-71.141 40.421-107.789z"></path>
<path fill="#e5e6e7" d="M2573.474 309.895c8.893 4.446 17.785 8.893 26.947 13.474 5.014 88.577 5.014 88.577-20.368 117.632-6.617 5.645-13.235 11.289-20.053 17.105-0.362-22.174-0.624-44.35-0.842-66.526-0.156-12.349-0.313-24.698-0.474-37.421 1.316-30.789 1.316-30.789 14.789-44.263z"></path>
<path fill="#e2e3e5" d="M336.842 202.105c17.785 0 35.571 0 53.895 0 3.368 37.053 3.368 37.053 0 80.842-26.947 32-26.947 32-53.895 53.895 0-44.463 0-88.926 0-134.737z"></path>
<path fill="#cbced1" d="M808.421 323.368c4.446 0 8.893 0 13.474 0 4.446 31.124 8.893 62.248 13.474 94.316 13.339-4.446 26.678-8.893 40.421-13.474-10.105 64-10.105 64-40.421 94.316-24.038-41.263-30.030-70.343-28.632-117.895 0.243-10.768 0.486-21.537 0.737-32.632 0.313-8.128 0.625-16.257 0.947-24.632z"></path>
<path fill="#cccfd2" d="M1172.211 417.684c4.446 0 8.893 0 13.474 0 0.66 9.257 1.32 18.515 2 28.053 1.007 12.141 2.015 24.281 3.053 36.789 0.938 12.036 1.876 24.073 2.842 36.474 3.78 36.708 3.78 36.708 32.526 73.842-13.474 13.474-13.474 13.474-48 14.316-10.838-0.278-21.676-0.556-32.842-0.842 4.446-8.893 8.893-17.785 13.474-26.947 3.080-27.452 5.527-54.978 7.579-82.526 1.129-14.763 2.258-29.526 3.421-44.737 0.816-11.359 1.633-22.718 2.474-34.421z"></path>
<path fill="#e5e6e8" d="M3018.105 323.368c0 40.017 0 80.034 0 121.263-13.339 4.446-26.678 8.893-40.421 13.474 0-40.017 0-80.034 0-121.263 26.947-13.474 26.947-13.474 40.421-13.474z"></path>
<path fill="#cbcdd1" d="M2964.211 323.368c4.446 0 8.893 0 13.474 0 4.446 40.017 8.893 80.034 13.474 121.263 8.893 0 17.785 0 26.947 0-8.893 26.678-17.785 53.356-26.947 80.842-31.679-47.519-29.837-67.756-28.632-123.789 0.243-14.642 0.486-29.283 0.737-44.368 0.313-11.203 0.625-22.405 0.947-33.947z"></path>
<path fill="#cbced1" d="M1792 40.421c51.126 5.289 74.242 30.227 107.789 67.368-74.623-8.291-74.623-8.291-106.105-34.526-5.002-6.392-10.004-12.783-15.158-19.368 4.446-4.446 8.893-8.893 13.474-13.474z"></path>
<path fill="#e6e6e8" d="M821.895 323.368c13.339 4.446 26.678 8.893 40.421 13.474 2.526 32 2.526 32 0 67.368-13.339 8.893-26.678 17.785-40.421 26.947 0-35.571 0-71.141 0-107.789z"></path>
</svg>
