<svg aria-hidden="true" style="position:absolute;width:0;height:0;overflow:hidden" xmlns="http://www.w3.org/2000/svg">
  <defs>
    <symbol id="icon-air" viewBox="0 0 20 20">
      <path d="M2.643 6.357c1.747-1.5 3.127-2.686 6.872-.57 1.799 1.016 3.25 1.4 4.457 1.398 2.115 0 3.486-1.176 4.671-2.193a1.037 1.037 0 0 0 .122-1.439.987.987 0 0 0-1.41-.125c-1.746 1.502-3.127 2.688-6.872.57-4.948-2.793-7.266-.803-9.128.797a1.037 1.037 0 0 0-.121 1.439.986.986 0 0 0 1.409.123zm14.712 2.178c-1.746 1.5-3.127 2.688-6.872.57-4.948-2.795-7.266-.804-9.128.795-.422.363-.477 1.008-.121 1.439s.986.488 1.409.125c1.747-1.501 3.127-2.687 6.872-.572 1.799 1.018 3.25 1.4 4.457 1.4 2.115 0 3.486-1.176 4.671-2.195a1.035 1.035 0 0 0 .122-1.438.986.986 0 0 0-1.41-.124zm0 5.106c-1.746 1.502-3.127 2.688-6.872.572-4.948-2.795-7.266-.805-9.128.795-.422.363-.477 1.008-.121 1.439s.986.486 1.409.123c1.747-1.5 3.127-2.685 6.872-.57 1.799 1.016 3.25 1.4 4.457 1.4 2.115 0 3.486-1.178 4.671-2.195.423-.363.477-1.008.122-1.439s-.987-.487-1.41-.125z"/>
    </symbol>
    <symbol id="icon-phone_in_talk" viewBox="0 0 24 24">
      <path d="M15 12q0-1.219-.891-2.109T12 9V6.984q2.063 0 3.539 1.477T17.016 12H15zm3.984 0q0-2.906-2.039-4.945T12 5.016V3q3.75 0 6.375 2.625T21 12h-2.016zm1.032 3.516q.422 0 .703.281T21 16.5v3.516q0 .422-.281.703t-.703.281q-7.031 0-12.023-4.992T3.001 3.985q0-.422.281-.703t.703-.281h3.516q.422 0 .703.281t.281.703v.047q0 1.922.563 3.516.094.188.094.328 0 .469-.328.703l-2.203 2.203q.938 1.781 2.883 3.727t3.727 2.883l2.203-2.203q.328-.328.703-.328.141 0 .328.094 1.688.563 3.563.563z"/>
    </symbol>
    <symbol id="icon-pool" viewBox="0 0 24 24">
      <path d="M14.016 5.484q0-1.031.727-1.758t1.758-.727 1.758.727.727 1.758-.727 1.781-1.758.75-1.758-.75-.727-1.781zM8.672 12q-.563 0-1.172-.375-.188-.141-.75-.375l3.234-3.234L9 6.985q-1.5-1.5-3.984-1.5V3.001q1.922 0 3.141.445t2.344 1.57l6.422 6.375q-.281.188-.422.234-.609.375-1.172.375-.516 0-1.125-.375-1.031-.609-2.203-.609t-2.203.609Q9.189 12 8.673 12zm13.312 4.5q-1.078 0-2.156-.656-.516-.328-1.172-.328-.609 0-1.125.328-1.078.656-2.203.656-1.078 0-2.156-.656-.516-.328-1.172-.328-.609 0-1.125.328-1.078.656-2.203.656-1.078 0-2.156-.656-.516-.328-1.172-.328-.609 0-1.125.328-1.078.656-2.203.656v-2.016q.609 0 1.125-.328 1.078-.656 2.203-.656 1.078 0 2.156.656.516.328 1.172.328.609 0 1.125-.328Q10.875 13.5 12 13.5q1.078 0 2.156.656.516.328 1.172.328.609 0 1.125-.328 1.078-.656 2.203-.656 1.078 0 2.156.656.516.328 1.172.328V16.5zm0 4.5q-1.078 0-2.156-.656-.516-.328-1.172-.328-.609 0-1.125.328-1.078.656-2.203.656-1.078 0-2.156-.656-.516-.328-1.172-.328-.609 0-1.125.328Q9.797 21 8.672 21t-2.203-.656q-.516-.328-1.125-.328-.656 0-1.172.328Q3.094 21 2.016 21v-2.016q.609 0 1.125-.328Q4.219 18 5.344 18q1.078 0 2.156.656.516.328 1.172.328.609 0 1.125-.328Q10.875 18 12 18t2.203.656q.516.328 1.125.328.656 0 1.172-.328Q17.578 18 18.656 18q1.125 0 2.203.656.516.328 1.125.328V21z"/>
    </symbol>
    <symbol id="icon-phone" viewBox="0 0 32 32">
      <path d="M15.331 19.76c-.026-.018-3.034-5.075-3.044-5.14-.622-1.359-1.124-2.749-.078-3.366l-4.341-7.32c-1.125.841-4.307 5.405 1.649 15.748 6.274 10.9 12.245 10.447 13.442 9.709l-4.23-7.145c-1 .588-1.842-.381-3.398-2.486zm10.531 6.857.001-.006-3.305-5.568a.924.924 0 0 0-1.264-.324l-2.024 1.197 4.242 7.166s2.024-1.191 2.023-1.195h.004a.922.922 0 0 0 .323-1.27zM14.786 9.736v-.004a.918.918 0 0 0 .325-1.265l.002-.006s-3.398-5.729-3.4-5.73a.921.921 0 0 0-1.263-.324L8.426 3.604l4.336 7.324s2.023-1.189 2.024-1.192z"/>
    </symbol>
    <symbol id="icon-washingmachine" viewBox="0 0 32 32">
      <path d="M4 13v15a1 1 0 0 0 1 1h21a1 1 0 0 0 1-1V13s-5.643-2.062-11.51-2.062C9.862 10.938 4 13 4 13zm17.5 7.125a5.75 5.75 0 1 1-11.5 0 5.75 5.75 0 1 1 11.5 0zM26 4H5a1 1 0 0 0-1 1v7s5.812-2 11.49-2C21.312 10 27 12 27 12V5a1 1 0 0 0-1-1zM11 8H6V6h5v2zm7.499 0a1 1 0 1 1 .001-1.999A1 1 0 0 1 18.499 8zM21.5 8a1 1 0 1 1 0-2 1 1 0 0 1 0 2zm2.938 0a1 1 0 1 1 0-2 1 1 0 0 1 0 2zM11.062 20.125a4.688 4.688 0 0 0 9.376 0c0-.006-1.604 1.646-4.688-.188-3.084-1.833-4.688.182-4.688.188z"/>
    </symbol>
    <symbol id="icon-facebook" viewBox="0 0 32 32">
      <path d="M19 6h5V0h-5c-3.86 0-7 3.14-7 7v3H8v6h4v16h6V16h5l1-6h-6V7c0-.542.458-1 1-1z"/>
    </symbol>
    <symbol id="icon-instagram" viewBox="0 0 32 32">
      <path d="M16 2.881c4.275 0 4.781.019 6.462.094 1.563.069 2.406.331 2.969.55a4.952 4.952 0 0 1 1.837 1.194 5.015 5.015 0 0 1 1.2 1.838c.219.563.481 1.412.55 2.969.075 1.688.094 2.194.094 6.463s-.019 4.781-.094 6.463c-.069 1.563-.331 2.406-.55 2.969a4.94 4.94 0 0 1-1.194 1.837 5.02 5.02 0 0 1-1.837 1.2c-.563.219-1.413.481-2.969.55-1.688.075-2.194.094-6.463.094s-4.781-.019-6.463-.094c-1.563-.069-2.406-.331-2.969-.55a4.952 4.952 0 0 1-1.838-1.194 5.02 5.02 0 0 1-1.2-1.837c-.219-.563-.481-1.413-.55-2.969-.075-1.688-.094-2.194-.094-6.463s.019-4.781.094-6.463c.069-1.563.331-2.406.55-2.969a4.964 4.964 0 0 1 1.194-1.838 5.015 5.015 0 0 1 1.838-1.2c.563-.219 1.412-.481 2.969-.55 1.681-.075 2.188-.094 6.463-.094zM16 0c-4.344 0-4.887.019-6.594.094-1.7.075-2.869.35-3.881.744-1.056.412-1.95.956-2.837 1.85a7.833 7.833 0 0 0-1.85 2.831C.444 6.538.169 7.7.094 9.4.019 11.113 0 11.656 0 16s.019 4.887.094 6.594c.075 1.7.35 2.869.744 3.881.413 1.056.956 1.95 1.85 2.837a7.82 7.82 0 0 0 2.831 1.844c1.019.394 2.181.669 3.881.744 1.706.075 2.25.094 6.594.094s4.888-.019 6.594-.094c1.7-.075 2.869-.35 3.881-.744 1.05-.406 1.944-.956 2.831-1.844s1.438-1.781 1.844-2.831c.394-1.019.669-2.181.744-3.881.075-1.706.094-2.25.094-6.594s-.019-4.887-.094-6.594c-.075-1.7-.35-2.869-.744-3.881a7.506 7.506 0 0 0-1.831-2.844A7.82 7.82 0 0 0 26.482.843C25.463.449 24.301.174 22.601.099c-1.712-.081-2.256-.1-6.6-.1z"/>
      <path d="M16 7.781c-4.537 0-8.219 3.681-8.219 8.219s3.681 8.219 8.219 8.219 8.219-3.681 8.219-8.219A8.221 8.221 0 0 0 16 7.781zm0 13.55a5.331 5.331 0 1 1 0-10.663 5.331 5.331 0 0 1 0 10.663zM26.462 7.456a1.919 1.919 0 1 1-3.838 0 1.919 1.919 0 0 1 3.838 0z"/>
    </symbol>
    <symbol id="icon-youtube" viewBox="0 0 32 32">
      <path d="M31.681 9.6s-.313-2.206-1.275-3.175C29.187 5.15 27.825 5.144 27.2 5.069c-4.475-.325-11.194-.325-11.194-.325h-.012s-6.719 0-11.194.325c-.625.075-1.987.081-3.206 1.356C.631 7.394.325 9.6.325 9.6s-.319 2.588-.319 5.181v2.425c0 2.587.319 5.181.319 5.181s.313 2.206 1.269 3.175c1.219 1.275 2.819 1.231 3.531 1.369 2.563.244 10.881.319 10.881.319s6.725-.012 11.2-.331c.625-.075 1.988-.081 3.206-1.356.962-.969 1.275-3.175 1.275-3.175s.319-2.587.319-5.181v-2.425c-.006-2.588-.325-5.181-.325-5.181zM12.694 20.15v-8.994l8.644 4.513-8.644 4.481z"/>
    </symbol>
    <symbol id="icon-washingmachine" viewBox="0 0 32 32">
      <path d="M4 13v15a1 1 0 0 0 1 1h21a1 1 0 0 0 1-1V13s-5.643-2.062-11.51-2.062C9.862 10.938 4 13 4 13zm17.5 7.125a5.75 5.75 0 1 1-11.5 0 5.75 5.75 0 1 1 11.5 0zM26 4H5a1 1 0 0 0-1 1v7s5.812-2 11.49-2C21.312 10 27 12 27 12V5a1 1 0 0 0-1-1zM11 8H6V6h5v2zm7.499 0a1 1 0 1 1 .001-1.999A1 1 0 0 1 18.499 8zM21.5 8a1 1 0 1 1 0-2 1 1 0 0 1 0 2zm2.938 0a1 1 0 1 1 0-2 1 1 0 0 1 0 2zM11.062 20.125a4.688 4.688 0 0 0 9.376 0c0-.006-1.604 1.646-4.688-.188-3.084-1.833-4.688.182-4.688.188z"/>
    </symbol>
    <symbol id="icon-cord" viewBox="0 0 32 32">
      <path d="M26.917 18.518 13.482 5.083a1.5 1.5 0 1 1 2.121-2.121l3.182 3.182 3.89-3.889a1.5 1.5 0 1 1 2.121 2.121l-3.889 3.889 2.828 2.828 3.889-3.889a1.5 1.5 0 0 1 2.122 2.121l-3.89 3.89 3.183 3.182a1.501 1.501 0 0 1-2.122 2.121zm-6.01 5.303c-1.297 1.296-7.071 1.414-7.071 1.414l-7.071-7.071s.118-5.774 1.414-7.071l4.95-4.949 12.728 12.728a6807.31 6807.31 0 0 0-4.95 4.949zM6.765 19.578l5.657 5.657a1 1 0 1 1-1.415 1.414l-5.656-5.657a.999.999 0 1 1 1.414-1.414zm2.828 7.071L8.532 27.71a1.5 1.5 0 0 1-2.121 0l-.354-.354-2.829 2.828-1.414-1.414 2.829-2.828-.353-.353c-.586-.586-.586-1.536 0-2.122s1.119-1.001 1.119-1.001l4.184 4.183z"/>
    </symbol>
    <symbol id="icon-car" viewBox="0 0 32 32">
      <path d="M27 22H4a2 2 0 0 1-2-2v-5a2 2 0 0 1 2-2h1s1.479-4.5 1.916-6 .896-2 2.001-2h13.166c1.104 0 1.438.312 2 2S26 13 26 13h1a2 2 0 0 1 2 2v5a2 2 0 0 1-2 2zM9 20h13v-1H9v1zm13-7c0-1.104-.896-2.125-2-2.125S18 11.896 18 13c0 .026 4 .026 4 0zM9 18h13v-1H9v1zm0-2h13v-1H9v1zm-4.938 1a2 2 0 1 0 4.001-.001A2 2 0 0 0 4.062 17zM23.083 7c-.25-.688-.447-1-1-1H16v1h.5a.5.5 0 0 1 0 1h-2a.5.5 0 0 1 0-1h.5V6H8.917c-.553 0-.751.125-1 1C7.666 7.875 6 13 6 13h11.46c.023-1.364 1.13-2.643 2.495-2.643s2.472 1.278 2.496 2.643H25s-1.667-5.312-1.917-6zm1.855 8.062a2 2 0 1 0 .001 4.001 2 2 0 0 0-.001-4.001zM7 25.5a1.5 1.5 0 0 1-3 0V23h3v2.5zm20 0a1.5 1.5 0 0 1-3 0V23h3v2.5z"/>
    </symbol>
    <symbol id="icon-bike" viewBox="0 0 38 32">
      <path d="M29.998 28.197a7.623 7.623 0 0 1-3.143-14.57l-1.014-2.283.165.399-6.944 9.321v1.869h1.017v1.018h-3.052v-1.018h1.018v-1.018l-2.877-.27c-.524 3.701-3.696 6.551-7.542 6.551A7.624 7.624 0 0 1 0 20.57a7.626 7.626 0 0 1 10.717-6.969l1.906-4.788-.865-2.416h-1.017c-.954 0-.699-1.017-.699-1.017s.063-.89.763-.89.699.636 1.843.636c1.095 0 2.669.317 2.669.317s.699.953-.635.953h-1.907l.723 2.597H24.55l-.868-1.973h-.675V6.004h4.067v1.017h-2.298l2.977 6.26a7.626 7.626 0 1 1 2.245 14.916zM7.627 13.96a6.61 6.61 0 1 0 0 13.219 6.604 6.604 0 0 0 6.53-5.639l-5.294-.545a1.003 1.003 0 0 1-.982.846 1.017 1.017 0 1 1 0-2.036c.12 0 .232.031.339.07l2.121-5.33a6.61 6.61 0 0 0-2.714-.585zm1.525 6.165 5.079.537c.001-.031.005-.061.005-.092a6.6 6.6 0 0 0-3.077-5.581l-2.007 5.136zm3.925-10.043-1.543 3.948a7.614 7.614 0 0 1 3.719 6.541c0 .066-.008.133-.01.199l1.726.182-3.892-10.87zm11.901-.686v.614h-11.12l4.05 10.839 7.687-10.065-.617-1.388zm5.02 4.564c-.637 0-1.251.095-1.834.264l2.374 5.424c.482.078.858.48.858.984a1.017 1.017 0 1 1-2.035 0c0-.273.111-.521.289-.705l-2.384-5.372a6.604 6.604 0 0 0-3.879 6.014 6.61 6.61 0 1 0 6.611-6.609z"/>
    </symbol>
    <symbol id="icon-globe" viewBox="0 0 32 32">
      <path d="M15.5 2C7.492 2 1 8.492 1 16.5S7.492 31 15.5 31 30 24.508 30 16.5 23.508 2 15.5 2zm-4.748 1.854c-.714 1.289-1.559 3.295-2.113 6.131H3.656a13.584 13.584 0 0 1 7.096-6.131zm-7.598 7.133H8.47a34.532 34.532 0 0 0-.415 5.012h-6.06a13.433 13.433 0 0 1 1.159-5.012zm-1.166 6.014H8.06a34.25 34.25 0 0 0 .422 5.012h-5.29c-.694-1.543-1.138-3.224-1.204-5.012zm1.682 6.014h4.977c.559 2.864 1.416 4.867 2.134 6.142a13.555 13.555 0 0 1-7.111-6.142zm11.392 6.994a13.41 13.41 0 0 1-3.045-.46c-.755-1.236-1.736-3.363-2.356-6.534h5.401v6.994zm0-7.996H9.484a34.514 34.514 0 0 1-.421-5.012h5.998v5.012zm0-6.014H9.058c.025-1.886.183-3.543.417-5.012h5.587v5.012zm0-6.014H9.64c.615-3.148 1.591-5.266 2.344-6.525a13.519 13.519 0 0 1 3.078-.47v6.995zm13.941 6.014H23.07a34.663 34.663 0 0 0-.416-5.012h5.172a13.457 13.457 0 0 1 1.177 5.012zm-1.681-6.014h-4.837c-.549-2.806-1.382-4.8-2.091-6.09 2.967 1.154 5.402 3.335 6.928 6.09zM16.063 2.989c1.067.047 2.102.216 3.092.493.751 1.263 1.72 3.372 2.331 6.503h-5.423V2.989zm0 7.998h5.587c.234 1.469.392 3.126.417 5.012h-6.004v-5.012zm0 6.014h5.998a34.235 34.235 0 0 1-.421 5.012h-5.577v-5.012zm0 12.99v-6.977h5.402c-.617 3.152-1.591 5.271-2.343 6.512-.978.272-2.005.418-3.059.465zm4.304-.877c.714-1.276 1.56-3.266 2.112-6.1h4.835c-1.522 2.766-3.967 4.95-6.947 6.1zm7.428-7.101h-5.152c.234-1.471.398-3.119.423-5.012h5.927c-.067 1.787-.508 3.468-1.198 5.012z"/>
    </symbol>
    <symbol id="icon-wi-fi" viewBox="0 0 40 32">
      <path d="M20 18c3.308 0 6.308 1.346 8.481 3.519l-2.827 2.827C24.205 22.897 22.205 22 20 22s-4.206.897-5.654 2.346l-2.827-2.827A11.963 11.963 0 0 1 20 18zM5.858 15.858C9.635 12.081 14.658 10 20 10s10.365 2.08 14.142 5.858l-2.828 2.828C28.292 15.664 24.274 14 20 14s-8.292 1.664-11.314 4.686l-2.828-2.828zM30.899 4.201a27.89 27.89 0 0 1 8.899 6l-2.828 2.828C32.437 8.496 26.41 6 19.999 6S7.561 8.496 3.028 13.029L.2 10.201A27.917 27.917 0 0 1 19.998 2c3.779 0 7.446.741 10.899 2.201zM18 28a2 2 0 1 1 3.999-.001A2 2 0 0 1 18 28z"/>
    </symbol>
    <symbol id="icon-menu" viewBox="0 0 32 32">
      <path stroke-linejoin="round" stroke-linecap="round" stroke-width="2.286" d="M4 16h24M4 8h24M4 24h24"/>
    </symbol>
    <symbol id="icon-close" viewBox="0 0 32 32">
      <path stroke-linejoin="round" stroke-linecap="round" stroke-width="4.571" d="M29.333 2.667 2.666 29.334m0-26.667 26.667 26.667"/>
    </symbol>
    <symbol id="icon-burger-btn" viewBox="0 0 36 32">
<path d="M1.199 4.002c0-0.637 0.253-1.247 0.703-1.697s1.061-0.703 1.697-0.703h28.8c0.637 0 1.247 0.253 1.697 0.703s0.703 1.061 0.703 1.697-0.253 1.247-0.703 1.697c-0.45 0.45-1.060 0.703-1.697 0.703h-28.8c-0.637 0-1.247-0.253-1.697-0.703s-0.703-1.061-0.703-1.697z"></path>
<path d="M1.199 16.002c0-0.637 0.253-1.247 0.703-1.697s1.061-0.703 1.697-0.703h28.8c0.637 0 1.247 0.253 1.697 0.703s0.703 1.061 0.703 1.697-0.253 1.247-0.703 1.697c-0.45 0.45-1.060 0.703-1.697 0.703h-28.8c-0.637 0-1.247-0.253-1.697-0.703s-0.703-1.061-0.703-1.697z"></path>
<path d="M1.199 28.002c0-0.637 0.253-1.247 0.703-1.697s1.061-0.703 1.697-0.703h28.8c0.637 0 1.247 0.253 1.697 0.703s0.703 1.060 0.703 1.697c0 0.636-0.253 1.247-0.703 1.697s-1.060 0.703-1.697 0.703h-28.8c-0.637 0-1.247-0.253-1.697-0.703s-0.703-1.061-0.703-1.697z"></path>
</symbol>
    
  </defs>
</svg>
