<svg aria-hidden="true" style="position:absolute;width:0;height:0;overflow:hidden" xmlns="http://www.w3.org/2000/svg">
  <defs>
    <symbol id="icon-washingmachine" viewBox="0 0 32 32">
      <path d="M4 13v15a1 1 0 0 0 1 1h21a1 1 0 0 0 1-1V13s-5.643-2.062-11.51-2.062C9.862 10.938 4 13 4 13zm17.5 7.125a5.75 5.75 0 1 1-11.5 0 5.75 5.75 0 1 1 11.5 0zM26 4H5a1 1 0 0 0-1 1v7s5.812-2 11.49-2C21.312 10 27 12 27 12V5a1 1 0 0 0-1-1zM11 8H6V6h5v2zm7.499 0a1 1 0 1 1 .001-1.999A1 1 0 0 1 18.499 8zM21.5 8a1 1 0 1 1 0-2 1 1 0 0 1 0 2zm2.938 0a1 1 0 1 1 0-2 1 1 0 0 1 0 2zM11.062 20.125a4.688 4.688 0 0 0 9.376 0c0-.006-1.604 1.646-4.688-.188-3.084-1.833-4.688.182-4.688.188z"/>
    </symbol>
    <symbol id="icon-cord" viewBox="0 0 32 32">
      <path d="M26.917 18.518 13.482 5.083a1.5 1.5 0 1 1 2.121-2.121l3.182 3.182 3.89-3.889a1.5 1.5 0 1 1 2.121 2.121l-3.889 3.889 2.828 2.828 3.889-3.889a1.5 1.5 0 0 1 2.122 2.121l-3.89 3.89 3.183 3.182a1.501 1.501 0 0 1-2.122 2.121zm-6.01 5.303c-1.297 1.296-7.071 1.414-7.071 1.414l-7.071-7.071s.118-5.774 1.414-7.071l4.95-4.949 12.728 12.728a6807.31 6807.31 0 0 0-4.95 4.949zM6.765 19.578l5.657 5.657a1 1 0 1 1-1.415 1.414l-5.656-5.657a.999.999 0 1 1 1.414-1.414zm2.828 7.071L8.532 27.71a1.5 1.5 0 0 1-2.121 0l-.354-.354-2.829 2.828-1.414-1.414 2.829-2.828-.353-.353c-.586-.586-.586-1.536 0-2.122s1.119-1.001 1.119-1.001l4.184 4.183z"/>
    </symbol>
    <symbol id="icon-car" viewBox="0 0 32 32">
      <path d="M27 22H4a2 2 0 0 1-2-2v-5a2 2 0 0 1 2-2h1s1.479-4.5 1.916-6 .896-2 2.001-2h13.166c1.104 0 1.438.312 2 2S26 13 26 13h1a2 2 0 0 1 2 2v5a2 2 0 0 1-2 2zM9 20h13v-1H9v1zm13-7c0-1.104-.896-2.125-2-2.125S18 11.896 18 13c0 .026 4 .026 4 0zM9 18h13v-1H9v1zm0-2h13v-1H9v1zm-4.938 1a2 2 0 1 0 4.001-.001A2 2 0 0 0 4.062 17zM23.083 7c-.25-.688-.447-1-1-1H16v1h.5a.5.5 0 0 1 0 1h-2a.5.5 0 0 1 0-1h.5V6H8.917c-.553 0-.751.125-1 1C7.666 7.875 6 13 6 13h11.46c.023-1.364 1.13-2.643 2.495-2.643s2.472 1.278 2.496 2.643H25s-1.667-5.312-1.917-6zm1.855 8.062a2 2 0 1 0 .001 4.001 2 2 0 0 0-.001-4.001zM7 25.5a1.5 1.5 0 0 1-3 0V23h3v2.5zm20 0a1.5 1.5 0 0 1-3 0V23h3v2.5z"/>
    </symbol>
    <symbol id="icon-bike" viewBox="0 0 38 32">
      <path d="M29.998 28.197a7.623 7.623 0 0 1-3.143-14.57l-1.014-2.283.165.399-6.944 9.321v1.869h1.017v1.018h-3.052v-1.018h1.018v-1.018l-2.877-.27c-.524 3.701-3.696 6.551-7.542 6.551A7.624 7.624 0 0 1 0 20.57a7.626 7.626 0 0 1 10.717-6.969l1.906-4.788-.865-2.416h-1.017c-.954 0-.699-1.017-.699-1.017s.063-.89.763-.89.699.636 1.843.636c1.095 0 2.669.317 2.669.317s.699.953-.635.953h-1.907l.723 2.597H24.55l-.868-1.973h-.675V6.004h4.067v1.017h-2.298l2.977 6.26a7.626 7.626 0 1 1 2.245 14.916zM7.627 13.96a6.61 6.61 0 1 0 0 13.219 6.604 6.604 0 0 0 6.53-5.639l-5.294-.545a1.003 1.003 0 0 1-.982.846 1.017 1.017 0 1 1 0-2.036c.12 0 .232.031.339.07l2.121-5.33a6.61 6.61 0 0 0-2.714-.585zm1.525 6.165 5.079.537c.001-.031.005-.061.005-.092a6.6 6.6 0 0 0-3.077-5.581l-2.007 5.136zm3.925-10.043-1.543 3.948a7.614 7.614 0 0 1 3.719 6.541c0 .066-.008.133-.01.199l1.726.182-3.892-10.87zm11.901-.686v.614h-11.12l4.05 10.839 7.687-10.065-.617-1.388zm5.02 4.564c-.637 0-1.251.095-1.834.264l2.374 5.424c.482.078.858.48.858.984a1.017 1.017 0 1 1-2.035 0c0-.273.111-.521.289-.705l-2.384-5.372a6.604 6.604 0 0 0-3.879 6.014 6.61 6.61 0 1 0 6.611-6.609z"/>
    </symbol>
    <symbol id="icon-globe" viewBox="0 0 32 32">
      <path d="M15.5 2C7.492 2 1 8.492 1 16.5S7.492 31 15.5 31 30 24.508 30 16.5 23.508 2 15.5 2zm-4.748 1.854c-.714 1.289-1.559 3.295-2.113 6.131H3.656a13.584 13.584 0 0 1 7.096-6.131zm-7.598 7.133H8.47a34.532 34.532 0 0 0-.415 5.012h-6.06a13.433 13.433 0 0 1 1.159-5.012zm-1.166 6.014H8.06a34.25 34.25 0 0 0 .422 5.012h-5.29c-.694-1.543-1.138-3.224-1.204-5.012zm1.682 6.014h4.977c.559 2.864 1.416 4.867 2.134 6.142a13.555 13.555 0 0 1-7.111-6.142zm11.392 6.994a13.41 13.41 0 0 1-3.045-.46c-.755-1.236-1.736-3.363-2.356-6.534h5.401v6.994zm0-7.996H9.484a34.514 34.514 0 0 1-.421-5.012h5.998v5.012zm0-6.014H9.058c.025-1.886.183-3.543.417-5.012h5.587v5.012zm0-6.014H9.64c.615-3.148 1.591-5.266 2.344-6.525a13.519 13.519 0 0 1 3.078-.47v6.995zm13.941 6.014H23.07a34.663 34.663 0 0 0-.416-5.012h5.172a13.457 13.457 0 0 1 1.177 5.012zm-1.681-6.014h-4.837c-.549-2.806-1.382-4.8-2.091-6.09 2.967 1.154 5.402 3.335 6.928 6.09zM16.063 2.989c1.067.047 2.102.216 3.092.493.751 1.263 1.72 3.372 2.331 6.503h-5.423V2.989zm0 7.998h5.587c.234 1.469.392 3.126.417 5.012h-6.004v-5.012zm0 6.014h5.998a34.235 34.235 0 0 1-.421 5.012h-5.577v-5.012zm0 12.99v-6.977h5.402c-.617 3.152-1.591 5.271-2.343 6.512-.978.272-2.005.418-3.059.465zm4.304-.877c.714-1.276 1.56-3.266 2.112-6.1h4.835c-1.522 2.766-3.967 4.95-6.947 6.1zm7.428-7.101h-5.152c.234-1.471.398-3.119.423-5.012h5.927c-.067 1.787-.508 3.468-1.198 5.012z"/>
    </symbol>
    <symbol id="icon-wi-fi" viewBox="0 0 40 32">
      <path d="M20 18c3.308 0 6.308 1.346 8.481 3.519l-2.827 2.827C24.205 22.897 22.205 22 20 22s-4.206.897-5.654 2.346l-2.827-2.827A11.963 11.963 0 0 1 20 18zM5.858 15.858C9.635 12.081 14.658 10 20 10s10.365 2.08 14.142 5.858l-2.828 2.828C28.292 15.664 24.274 14 20 14s-8.292 1.664-11.314 4.686l-2.828-2.828zM30.899 4.201a27.89 27.89 0 0 1 8.899 6l-2.828 2.828C32.437 8.496 26.41 6 19.999 6S7.561 8.496 3.028 13.029L.2 10.201A27.917 27.917 0 0 1 19.998 2c3.779 0 7.446.741 10.899 2.201zM18 28a2 2 0 1 1 3.999-.001A2 2 0 0 1 18 28z"/>
    </symbol>
    <symbol id="icon-menu" viewBox="0 0 32 32">
      <path stroke-linejoin="round" stroke-linecap="round" stroke-width="2.286" d="M4 16h24M4 8h24M4 24h24"/>
    </symbol>
    <symbol id="icon-close" viewBox="0 0 32 32">
      <path stroke-linejoin="round" stroke-linecap="round" stroke-width="4.571" d="M29.333 2.667 2.666 29.334m0-26.667 26.667 26.667"/>
    </symbol>
    <symbol id="icon-burger-btn" viewBox="0 0 36 32">
<path d="M1.199 4.002c0-0.637 0.253-1.247 0.703-1.697s1.061-0.703 1.697-0.703h28.8c0.637 0 1.247 0.253 1.697 0.703s0.703 1.061 0.703 1.697-0.253 1.247-0.703 1.697c-0.45 0.45-1.060 0.703-1.697 0.703h-28.8c-0.637 0-1.247-0.253-1.697-0.703s-0.703-1.061-0.703-1.697z"></path>
<path d="M1.199 16.002c0-0.637 0.253-1.247 0.703-1.697s1.061-0.703 1.697-0.703h28.8c0.637 0 1.247 0.253 1.697 0.703s0.703 1.061 0.703 1.697-0.253 1.247-0.703 1.697c-0.45 0.45-1.060 0.703-1.697 0.703h-28.8c-0.637 0-1.247-0.253-1.697-0.703s-0.703-1.061-0.703-1.697z"></path>
<path d="M1.199 28.002c0-0.637 0.253-1.247 0.703-1.697s1.061-0.703 1.697-0.703h28.8c0.637 0 1.247 0.253 1.697 0.703s0.703 1.060 0.703 1.697c0 0.636-0.253 1.247-0.703 1.697s-1.060 0.703-1.697 0.703h-28.8c-0.637 0-1.247-0.253-1.697-0.703s-0.703-1.061-0.703-1.697z"></path>
</symbol>
    
  </defs>
</svg>
